<svg xmlns="http://www.w3.org/2000/svg" xmlns:xlink="http://www.w3.org/1999/xlink" width="197.28" height="62.974" viewBox="0 0 197.28 62.974">
  <defs>
    <linearGradient id="linear-gradient" x1="0.963" y1="0.039" x2="0.033" y2="0.965" gradientUnits="objectBoundingBox">
      <stop offset="0" stop-color="#0164c4"/>
      <stop offset="1" stop-color="#01ff90"/>
    </linearGradient>
  </defs>
  <path id="Intersection_24" data-name="Intersection 24" d="M168.691,62.813l6.732-15.576-13-32.076h7.92l5.61,15.378,3.234,9.239,3.5-9.108,6.468-15.51h7.59L176.215,62.813ZM.722,31.264c0-9.9,6.93-16.961,17.094-16.961,10.494,0,17.622,6.4,16.368,19.668H7.784c.594,4.95,4.685,8.184,10.625,8.184,3.3,0,7.458-1.254,9.438-3.5l4.422,4.289c-3.366,3.7-8.976,5.544-13.991,5.544C7.586,48.49.722,41.693.722,31.264Zm7.194-3.036H27.65c-.4-5.148-4.158-7.854-9.636-7.854C13.064,20.374,8.972,23.08,7.916,28.229ZM39.134,31.4c0-11.088,7.062-16.962,16.5-16.962,3.96,0,9.306,1.98,11.418,5.809V1.564h6.8V47.7h-6.4l-.4-5.148c-2.574,4.158-6.93,5.809-11.286,5.809C46.327,48.359,39.134,42.154,39.134,31.4Zm6.8,0c0,6.534,4.554,10.626,10.3,10.626A10.2,10.2,0,0,0,66.59,31.4a10.221,10.221,0,0,0-10.363-10.56C50.486,20.837,45.931,24.73,45.931,31.4Zm36.63,1.254V15.161h6.8V32.584c0,5.544,3.168,9.372,8.843,9.372,5.346,0,9.042-4.422,9.042-9.833V15.161h6.8v32.6h-6.138l-.4-4.819a13.949,13.949,0,0,1-11.219,5.28C88.3,48.227,82.562,42.485,82.562,32.65ZM149.288,47.7V1.564h6.8V47.7Zm-22.572,0V21.562h-6.2V15.557h6.2V13.181c0-8.118,5.082-12.342,11.749-12.342a14.341,14.341,0,0,1,7.986,2.574l-2.64,5.081a8.812,8.812,0,0,0-4.95-1.715c-3.1,0-5.28,2.046-5.28,6.4v2.376h9.834v6.006H133.58V47.7Z" transform="translate(-0.222 -0.339)" stroke="rgba(0,0,0,0)" stroke-miterlimit="10" stroke-width="1" fill="url(#linear-gradient)"/>
</svg>
