<svg id="Component_17_1" data-name="Component 17 – 1" xmlns="http://www.w3.org/2000/svg" xmlns:xlink="http://www.w3.org/1999/xlink" width="109" height="109" viewBox="0 0 109 109">
  <defs>
    <clipPath id="clip-path">
      <path id="Path_11101" data-name="Path 11101" d="M160.133,238.37a11.729,11.729,0,0,0,.279,10.085h-56.12l-.279-10.786Z" transform="translate(-104.013 -237.669)" fill="none"/>
    </clipPath>
    <clipPath id="clip-path-2">
      <path id="Path_11104" data-name="Path 11104" d="M155.238,179.444a11.743,11.743,0,0,0,.278,10.086H99.472l-.279-10.786Z" transform="translate(-99.193 -178.744)" fill="none"/>
    </clipPath>
  </defs>
  <circle id="Ellipse_1289" data-name="Ellipse 1289" cx="46.459" cy="46.459" r="46.459" transform="translate(0 91.198) rotate(-78.954)" fill="#91f5ff"/>
  <path id="Path_11099" data-name="Path 11099" d="M104.013,203.2l32.245,18.06a46.509,46.509,0,0,0,39.369-55.413l-24.1-18.636Z" transform="translate(-75.609 -120.707)" fill="#1d5656"/>
  <g id="Group_16424" data-name="Group 16424" transform="translate(23.006 26.506)">
    <g id="Group_16401" data-name="Group 16401" transform="translate(2.287 40.779)">
      <path id="Path_11100" data-name="Path 11100" d="M160.133,238.37a11.729,11.729,0,0,0,.279,10.085h-56.12l-.279-10.786Z" transform="translate(-100.902 -235.451)" fill="#e7e6e6"/>
      <g id="Group_16400" data-name="Group 16400" transform="translate(3.111 2.218)">
        <g id="Group_16399" data-name="Group 16399" clip-path="url(#clip-path)">
          <g id="Group_16398" data-name="Group 16398" transform="translate(0 1.257)">
            <g id="Group_16389" data-name="Group 16389">
              <g id="Group_16385" data-name="Group 16385">
                <g id="Group_16383" data-name="Group 16383">
                  <rect id="Rectangle_6261" data-name="Rectangle 6261" width="56.005" height="0.44" fill="#d0d1d1"/>
                </g>
                <g id="Group_16384" data-name="Group 16384" transform="translate(0 0.879)">
                  <rect id="Rectangle_6262" data-name="Rectangle 6262" width="56.005" height="0.44" fill="#d0d1d1"/>
                </g>
              </g>
              <g id="Group_16388" data-name="Group 16388" transform="translate(0 2.199)">
                <g id="Group_16386" data-name="Group 16386">
                  <rect id="Rectangle_6263" data-name="Rectangle 6263" width="56.005" height="0.44" fill="#d0d1d1"/>
                </g>
                <g id="Group_16387" data-name="Group 16387" transform="translate(0 1.319)">
                  <rect id="Rectangle_6264" data-name="Rectangle 6264" width="56.005" height="0.44" fill="#d0d1d1"/>
                </g>
              </g>
            </g>
            <g id="Group_16397" data-name="Group 16397" transform="translate(0 4.397)">
              <g id="Group_16391" data-name="Group 16391">
                <g id="Group_16390" data-name="Group 16390">
                  <rect id="Rectangle_6265" data-name="Rectangle 6265" width="56.005" height="0.44" fill="#d0d1d1"/>
                </g>
              </g>
              <g id="Group_16394" data-name="Group 16394" transform="translate(0 0.879)">
                <g id="Group_16392" data-name="Group 16392">
                  <rect id="Rectangle_6266" data-name="Rectangle 6266" width="56.005" height="0.44" fill="#d0d1d1"/>
                </g>
                <g id="Group_16393" data-name="Group 16393" transform="translate(0 1.319)">
                  <rect id="Rectangle_6267" data-name="Rectangle 6267" width="56.005" height="0.44" fill="#d0d1d1"/>
                </g>
              </g>
              <g id="Group_16396" data-name="Group 16396" transform="translate(0 3.519)">
                <g id="Group_16395" data-name="Group 16395">
                  <rect id="Rectangle_6268" data-name="Rectangle 6268" width="56.005" height="0.439" fill="#d0d1d1"/>
                </g>
              </g>
            </g>
          </g>
        </g>
      </g>
      <path id="Path_11102" data-name="Path 11102" d="M101.329,239.687v-1.43c0-2.541,2.061-2.335,2.061-2.335h54.435V233h-55a3.685,3.685,0,0,0-2.514.817h0l0,0c-.048.042-.095.085-.139.129l-.015.014c-.024.025-.05.049-.074.074-1.041,1.051-5.067,5.815-.431,12.549a3.368,3.368,0,0,0,3.176,1.623h55v-2.92H103.39s-2.061.205-2.061-2.335v-3.27Z" transform="translate(-97.468 -233.002)" fill="#ff4200"/>
    </g>
    <g id="Group_16420" data-name="Group 16420" transform="translate(0 12.769)">
      <path id="Path_11103" data-name="Path 11103" d="M155.238,179.444a11.743,11.743,0,0,0,.278,10.086H99.472l-.279-10.786Z" transform="translate(-96.086 -176.525)" fill="#e7e6e6"/>
      <g id="Group_16419" data-name="Group 16419" transform="translate(3.107 2.219)">
        <g id="Group_16418" data-name="Group 16418" clip-path="url(#clip-path-2)">
          <g id="Group_16417" data-name="Group 16417" transform="translate(0 1.256)">
            <g id="Group_16408" data-name="Group 16408">
              <g id="Group_16404" data-name="Group 16404">
                <g id="Group_16402" data-name="Group 16402">
                  <rect id="Rectangle_6269" data-name="Rectangle 6269" width="55.929" height="0.44" fill="#d0d1d1"/>
                </g>
                <g id="Group_16403" data-name="Group 16403" transform="translate(0 0.879)">
                  <rect id="Rectangle_6270" data-name="Rectangle 6270" width="55.929" height="0.44" fill="#d0d1d1"/>
                </g>
              </g>
              <g id="Group_16407" data-name="Group 16407" transform="translate(0 2.198)">
                <g id="Group_16405" data-name="Group 16405">
                  <rect id="Rectangle_6271" data-name="Rectangle 6271" width="55.929" height="0.44" fill="#d0d1d1"/>
                </g>
                <g id="Group_16406" data-name="Group 16406" transform="translate(0 1.319)">
                  <rect id="Rectangle_6272" data-name="Rectangle 6272" width="55.929" height="0.44" fill="#d0d1d1"/>
                </g>
              </g>
            </g>
            <g id="Group_16416" data-name="Group 16416" transform="translate(0 4.397)">
              <g id="Group_16410" data-name="Group 16410">
                <g id="Group_16409" data-name="Group 16409">
                  <rect id="Rectangle_6273" data-name="Rectangle 6273" width="55.929" height="0.44" fill="#d0d1d1"/>
                </g>
              </g>
              <g id="Group_16413" data-name="Group 16413" transform="translate(0 0.879)">
                <g id="Group_16411" data-name="Group 16411">
                  <rect id="Rectangle_6274" data-name="Rectangle 6274" width="55.929" height="0.44" fill="#d0d1d1"/>
                </g>
                <g id="Group_16412" data-name="Group 16412" transform="translate(0 1.319)">
                  <rect id="Rectangle_6275" data-name="Rectangle 6275" width="55.929" height="0.44" fill="#d0d1d1"/>
                </g>
              </g>
              <g id="Group_16415" data-name="Group 16415" transform="translate(0 3.518)">
                <g id="Group_16414" data-name="Group 16414">
                  <rect id="Rectangle_6276" data-name="Rectangle 6276" width="55.929" height="0.439" fill="#d0d1d1"/>
                </g>
              </g>
            </g>
          </g>
        </g>
      </g>
      <path id="Path_11105" data-name="Path 11105" d="M96.512,180.761V179.33c0-2.54,2.059-2.335,2.059-2.335H152.93v-2.919H98.009a3.682,3.682,0,0,0-2.51.817h0l0,0c-.049.042-.095.086-.139.13l-.014.014c-.026.025-.052.049-.075.074-1.039,1.051-5.06,5.815-.43,12.549a3.362,3.362,0,0,0,3.171,1.623H152.93v-2.92H98.571s-2.059.205-2.059-2.335v-3.27Z" transform="translate(-92.657 -174.076)" fill="#ef0f44"/>
    </g>
    <g id="Group_16421" data-name="Group 16421" transform="translate(1.94 27.979)">
      <rect id="Rectangle_6277" data-name="Rectangle 6277" width="61.05" height="12.8" fill="#f49ab8"/>
      <rect id="Rectangle_6278" data-name="Rectangle 6278" width="15.702" height="7.014" transform="translate(3.73 3.099)" fill="#ef6c9e"/>
      <rect id="Rectangle_6279" data-name="Rectangle 6279" width="61.05" height="6.4" transform="translate(0 6.4)" fill="#fff" opacity="0.4"/>
    </g>
    <g id="Group_16423" data-name="Group 16423" transform="translate(12.024 0)">
      <g id="Group_16422" data-name="Group 16422">
        <rect id="Rectangle_6280" data-name="Rectangle 6280" width="40.883" height="12.8" fill="#83e2be"/>
        <rect id="Rectangle_6281" data-name="Rectangle 6281" width="1.067" height="12.8" transform="translate(35.933)" fill="#22af7c"/>
        <rect id="Rectangle_6282" data-name="Rectangle 6282" width="1.067" height="12.8" transform="translate(31.36)" fill="#22af7c"/>
        <rect id="Rectangle_6283" data-name="Rectangle 6283" width="8.088" height="8.089" transform="translate(3.005 2.402)" fill="#22af7c"/>
      </g>
      <rect id="Rectangle_6284" data-name="Rectangle 6284" width="40.883" height="6.4" transform="translate(0 6.4)" fill="#fffefd" opacity="0.4"/>
    </g>
  </g>
</svg>
