<svg xmlns="http://www.w3.org/2000/svg" xmlns:xlink="http://www.w3.org/1999/xlink" width="290.705" height="204.5" viewBox="0 0 290.705 204.5">
  <defs>
    <clipPath id="clip-path">
      <path id="Path_11046" data-name="Path 11046" d="M347.606,200.061s2.13-11.4-7.478-11.363c-8.815.035-9.66,16.816-1.588,17.421S347.606,200.061,347.606,200.061Z" transform="translate(-332.968 -188.698)" fill="#fff"/>
    </clipPath>
    <clipPath id="clip-path-2">
      <path id="Path_11050" data-name="Path 11050" d="M420.544,201.962s2.307-11.4-8.082-11.36c-9.53.038-10.45,16.819-1.723,17.422S420.544,201.962,420.544,201.962Z" transform="translate(-404.718 -190.602)" fill="#fff"/>
    </clipPath>
    <clipPath id="clip-path-3">
      <path id="Path_11073" data-name="Path 11073" d="M168.519,311.4H101.092a8.506,8.506,0,0,1-7.736-4.969L71.942,259.595a4.76,4.76,0,0,1,4.329-6.739H143.72a7.814,7.814,0,0,1,7.106,4.565L172.6,305.046A4.488,4.488,0,0,1,168.519,311.4Z" transform="translate(-71.506 -252.856)" fill="#b1b7da"/>
    </clipPath>
  </defs>
  <g id="Component_13_1" data-name="Component 13 – 1" transform="translate(0 0.964)">
    <g id="Group_16322" data-name="Group 16322" transform="translate(14.678)">
      <g id="Group_16319" data-name="Group 16319" transform="translate(200.625 22.958)">
        <g id="Group_16318" data-name="Group 16318" transform="translate(0)">
          <rect id="Rectangle_6241" data-name="Rectangle 6241" width="39.321" height="51.233" transform="translate(0 39.321) rotate(-90)" fill="none" stroke="#b7d0e0" stroke-miterlimit="10" stroke-width="1.866"/>
          <rect id="Rectangle_6242" data-name="Rectangle 6242" width="22.697" height="34.094" transform="translate(8.569 31.009) rotate(-90)" fill="#fff"/>
        </g>
      </g>
      <g id="Group_16321" data-name="Group 16321">
        <rect id="Rectangle_6243" data-name="Rectangle 6243" width="90.836" height="89.146" fill="none" stroke="#b7d0e0" stroke-miterlimit="10" stroke-width="1.927"/>
        <g id="Group_16320" data-name="Group 16320" transform="translate(6.068 2.812)">
          <rect id="Rectangle_6244" data-name="Rectangle 6244" width="78.983" height="38.296" transform="translate(0 2.86)" fill="#fff"/>
          <rect id="Rectangle_6245" data-name="Rectangle 6245" width="78.983" height="37.964" transform="translate(0 42.836)" fill="#fff"/>
          <rect id="Rectangle_6246" data-name="Rectangle 6246" width="2.07" height="83.521" transform="translate(38.032)" fill="#e6f2fd"/>
        </g>
      </g>
    </g>
    <g id="Group_16378" data-name="Group 16378" transform="translate(0 11.206)">
      <rect id="Rectangle_6247" data-name="Rectangle 6247" width="290.705" height="40.182" transform="translate(0 152.149)" fill="#fff"/>
      <g id="Group_16352" data-name="Group 16352" transform="translate(27.716 0)">
        <g id="Group_16347" data-name="Group 16347" transform="translate(87.389)">
          <path id="Rectangle_6248" data-name="Rectangle 6248" d="M20.272,0H40.9A20.272,20.272,0,0,1,61.174,20.272V30a0,0,0,0,1,0,0H0a0,0,0,0,1,0,0V20.272A20.272,20.272,0,0,1,20.272,0Z" transform="translate(47.635 92.407)" fill="#111252"/>
          <g id="Group_16346" data-name="Group 16346">
            <g id="Group_16327" data-name="Group 16327" transform="translate(5.333 64.427)">
              <g id="Group_16325" data-name="Group 16325">
                <path id="Path_11034" data-name="Path 11034" d="M353.99,290.883,320.146,325.2a6.647,6.647,0,0,0,.975,9.916h0a6.634,6.634,0,0,0,7.148.406c6.4-3.619,21.388-11.923,29.662-23.469Z" transform="translate(-315.403 -273.103)" fill="#3b48c3"/>
                <g id="Group_16324" data-name="Group 16324">
                  <path id="Path_11035" data-name="Path 11035" d="M342.024,278.01l3.38-7.415s4.518-1.1,5.807-7.8l-20.39-17.78s-3.868.921-1.29,9.142a54.365,54.365,0,0,0,5.576,12.73l-4.045,11.126Z" transform="translate(-321.698 -245.012)" fill="#e38390"/>
                  <g id="Group_16323" data-name="Group 16323" transform="translate(0 24.925)">
                    <path id="Path_11036" data-name="Path 11036" d="M335.22,312.642l-5.885,23.411-7.771,11.491s-11.04,1.71-10.839-11.324,11.462-26.9,11.462-26.9Z" transform="translate(-310.722 -309.317)" fill="#3b48c3"/>
                    <line id="Line_1966" data-name="Line 1966" x1="3.317" y2="14.577" transform="translate(19.428 8.916)" fill="none" stroke="#060000" stroke-linecap="round" stroke-linejoin="round" stroke-width="0.991"/>
                  </g>
                </g>
              </g>
              <g id="Group_16326" data-name="Group 16326" transform="translate(33.743 7.608)">
                <path id="Path_11037" data-name="Path 11037" d="M402.229,271.546l-4.451,45h54.756s-6.545-39.012-28.843-51.905Z" transform="translate(-397.778 -264.641)" fill="#3b48c3"/>
                <line id="Line_1967" data-name="Line 1967" y1="14.296" x2="1.182" transform="translate(1.209 25.39)" fill="none" stroke="#060000" stroke-linecap="round" stroke-linejoin="round" stroke-width="0.991"/>
              </g>
            </g>
            <g id="Group_16340" data-name="Group 16340">
              <path id="Path_11038" data-name="Path 11038" d="M320.281,122.6s-10.937-43.986,39.5-43.671L352.1,98.839Z" transform="translate(-310.63 -78.875)" fill="#060000"/>
              <path id="Path_11039" data-name="Path 11039" d="M409.968,109.732c-1.041,17.977-13.879,33.342-31.864,34.245a32.605,32.605,0,0,1-3.267-65.129C392.822,77.946,411.182,88.764,409.968,109.732Z" transform="translate(-325.685 -78.795)" fill="#060000"/>
              <circle id="Ellipse_1280" data-name="Ellipse 1280" cx="10.032" cy="10.032" r="10.032" transform="translate(0 52.495) rotate(-45)" fill="#e38390"/>
              <path id="Path_11040" data-name="Path 11040" d="M349.075,101.821s-17.076-.776-23.221,18.787.037,53.885,24.668,56.642c21.424,2.4,37.708-8.687,38.865-30.867C390.683,121.526,386.149,97.98,349.075,101.821Z" transform="translate(-313.302 -92.643)" fill="#eaa9b3"/>
              <path id="Path_11041" data-name="Path 11041" d="M472.89,153.7l-6.024,8.551-5.122-2.123s4.5-19.186-1.963-29.2l13.2-.662Z" transform="translate(-396.672 -110.318)" fill="#060000"/>
              <g id="Group_16328" data-name="Group 16328" transform="translate(67.366 39.548)">
                <circle id="Ellipse_1281" data-name="Ellipse 1281" cx="10.359" cy="10.359" r="10.359" transform="translate(0 4.558) rotate(-12.709)" fill="#eaa9b3"/>
                <path id="Path_11042" data-name="Path 11042" d="M490.628,211.463s1.955-7.353,9.8-5.476" transform="translate(-482.928 -196.047)" fill="none" stroke="#060000" stroke-linecap="round" stroke-linejoin="round" stroke-width="1.486"/>
              </g>
              <g id="Group_16329" data-name="Group 16329" transform="translate(7.632 6.289)">
                <path id="Path_11043" data-name="Path 11043" d="M342.633,102.211s-6.156,14.246,16.135,15.733c0,0-5.4-5.051-5.605-9.122,0,0,8.4,13.953,49.289,14.256,0,0,1.272-16.2-12.185-22.863S342.633,102.211,342.633,102.211Z" transform="translate(-332.085 -96.659)" fill="#060000"/>
                <path id="Path_11044" data-name="Path 11044" d="M332.286,95.023s-9.132-.3-15.633,8.7a42.106,42.106,0,0,1,12.393-.014Z" transform="translate(-316.653 -95.022)" fill="#060000"/>
              </g>
              <g id="Group_16339" data-name="Group 16339" transform="translate(1.089 32.406)">
                <g id="Group_16337" data-name="Group 16337" transform="translate(12.455)">
                  <g id="Group_16336" data-name="Group 16336" transform="translate(0.412 10.193)">
                    <g id="Group_16332" data-name="Group 16332">
                      <g id="Group_16331" data-name="Group 16331">
                        <path id="Path_11045" data-name="Path 11045" d="M347.606,200.061s2.13-11.4-7.478-11.363c-8.815.035-9.66,16.816-1.588,17.421S347.606,200.061,347.606,200.061Z" transform="translate(-332.968 -188.698)" fill="#fff"/>
                        <g id="Group_16330" data-name="Group 16330" clip-path="url(#clip-path)">
                          <ellipse id="Ellipse_1282" data-name="Ellipse 1282" cx="6.333" cy="7.564" rx="6.333" ry="7.564" transform="translate(-0.024 3.886) rotate(-0.247)" fill="#060000"/>
                        </g>
                      </g>
                      <path id="Path_11047" data-name="Path 11047" d="M348.082,197.419s-.558-8.416-7.9-7.932c-7.831.517-6.71,10.635-6.71,10.635" transform="translate(-333.246 -189.169)" fill="none" stroke="#060000" stroke-linecap="round" stroke-linejoin="round" stroke-width="2.069"/>
                      <path id="Path_11048" data-name="Path 11048" d="M354.625,198.606a1.526,1.526,0,1,1-1.526-1.526A1.526,1.526,0,0,1,354.625,198.606Z" transform="translate(-344.362 -193.831)" fill="#fff"/>
                    </g>
                    <g id="Group_16335" data-name="Group 16335" transform="translate(27.811 0.738)">
                      <g id="Group_16334" data-name="Group 16334">
                        <path id="Path_11049" data-name="Path 11049" d="M420.544,201.962s2.307-11.4-8.082-11.36c-9.53.038-10.45,16.819-1.723,17.422S420.544,201.962,420.544,201.962Z" transform="translate(-404.718 -190.602)" fill="#fff"/>
                        <g id="Group_16333" data-name="Group 16333" clip-path="url(#clip-path-2)">
                          <ellipse id="Ellipse_1283" data-name="Ellipse 1283" cx="7.033" cy="7.769" rx="7.033" ry="7.769" transform="translate(-0.651 3.685) rotate(-0.246)" fill="#060000"/>
                        </g>
                      </g>
                      <path id="Path_11051" data-name="Path 11051" d="M420.992,199.32s-.6-8.416-8.534-7.929c-8.467.52-7.308,10.272-7.308,10.272" transform="translate(-404.95 -191.073)" fill="none" stroke="#060000" stroke-linecap="round" stroke-linejoin="round" stroke-width="2.069"/>
                      <path id="Path_11052" data-name="Path 11052" d="M424.716,198.606a1.526,1.526,0,1,1-1.526-1.526A1.526,1.526,0,0,1,424.716,198.606Z" transform="translate(-415.096 -194.569)" fill="#fff"/>
                    </g>
                    <path id="Path_11053" data-name="Path 11053" d="M371.316,239.854s-.951-5.727,5.463-1.652" transform="translate(-356.422 -218.117)" fill="none" stroke="#060000" stroke-linecap="round" stroke-linejoin="round" stroke-width="1.486"/>
                  </g>
                  <path id="Path_11054" data-name="Path 11054" d="M373.726,255.336l14.714-2.113s.4,6.727-6.344,6.874S373.726,255.336,373.726,255.336Z" transform="translate(-357.516 -218.02)" fill="#fff"/>
                  <path id="Path_11055" data-name="Path 11055" d="M331.906,167.916s5.394-4.015,14.277-.062c0,0,.107-5.166-7.152-5.148A7.315,7.315,0,0,0,331.906,167.916Z" transform="translate(-331.906 -162.588)" fill="#060000"/>
                  <path id="Path_11056" data-name="Path 11056" d="M419.048,167.544s-6.5-3.963-17.092.074c0,0-.178-5.165,8.513-5.216C417.362,162.361,419.048,167.544,419.048,167.544Z" transform="translate(-374.804 -162.401)" fill="#060000"/>
                </g>
                <g id="Group_16338" data-name="Group 16338" transform="translate(0 5.841)">
                  <path id="Path_11057" data-name="Path 11057" d="M407.832,179.65l-15.705,20.944s4.606,8.99,12.072,8.059l15.846-20.428S415.887,179.15,407.832,179.65Z" transform="translate(-356.33 -178.794)" fill="#fff" opacity="0.22"/>
                  <path id="Path_11058" data-name="Path 11058" d="M317.258,178.86l-14.576,20.954s4.265,8.987,11.19,8.052l14.707-20.437S324.728,178.354,317.258,178.86Z" transform="translate(-301.554 -178.309)" fill="#fff" opacity="0.22"/>
                  <path id="Path_11059" data-name="Path 11059" d="M389.087,193.311a15.181,15.181,0,1,0,15.31-15.05A15.181,15.181,0,0,0,389.087,193.311Z" transform="translate(-354.468 -177.955)" fill="none" stroke="#f3d487" stroke-miterlimit="10" stroke-width="3.828"/>
                  <path id="Path_11060" data-name="Path 11060" d="M299.773,192.532c-.072,8.384,6.172,15.234,13.947,15.3s14.134-6.676,14.206-15.06-6.172-15.234-13.946-15.3S299.845,184.148,299.773,192.532Z" transform="translate(-299.772 -177.472)" fill="none" stroke="#f3d487" stroke-miterlimit="10" stroke-width="3.828"/>
                  <path id="Path_11061" data-name="Path 11061" d="M378.872,215.792a7.154,7.154,0,0,0-6.466-.055" transform="translate(-344.253 -200.436)" fill="none" stroke="#f3d487" stroke-miterlimit="10" stroke-width="3.828"/>
                </g>
              </g>
            </g>
            <g id="Group_16345" data-name="Group 16345" transform="translate(44.412 63.722)">
              <g id="Group_16341" data-name="Group 16341" transform="translate(0.479)">
                <path id="Path_11062" data-name="Path 11062" d="M427.186,274.409l-1.166-5.345s14.48-6.22,13.314-17.1c0,0,1.263-7.385-1.263-8.552s-2.333,2.818-2.333,2.818-.7-2.571-2.235-2.235c-1.5.329-1.2,2.6-1.2,2.6s-1.128-2.11-2.488-1.624.148,4.228-1.309,6.075-4.619,6.656-8.7,8.405-10.2,5.637-5.054,17.979Z" transform="translate(-412.778 -243.194)" fill="#eaa9b3"/>
                <path id="Path_11063" data-name="Path 11063" d="M460.138,251.947a11.053,11.053,0,0,1-1.9,8.6" transform="translate(-440.618 -248.554)" fill="none" stroke="#060000" stroke-linecap="round" stroke-linejoin="round" stroke-width="0.991"/>
                <path id="Path_11064" data-name="Path 11064" d="M470.414,251.017s1.659,3.592-1.012,8.961" transform="translate(-447.454 -247.985)" fill="none" stroke="#060000" stroke-linecap="round" stroke-linejoin="round" stroke-width="0.991"/>
                <path id="Path_11065" data-name="Path 11065" d="M415.529,264.6s1.7-3.326,6.877-5.412a16.752,16.752,0,0,0,6.666-5.878,10.522,10.522,0,0,0,1.655-5.725c-.007-1.072.155-2.2.767-2.423,1.542-.568,2.488,1.624,2.488,1.624s-.233-2.319,1.2-2.6,2.235,2.235,2.235,2.235-.039-3.485,2.333-2.818,1.5,6.6,1.5,6.6l-.234,1.957a11.292,11.292,0,0,1-2.333,4.983" transform="translate(-414.463 -243.398)" fill="none" stroke="#060000" stroke-linecap="round" stroke-linejoin="round" stroke-width="0.991"/>
              </g>
              <g id="Group_16344" data-name="Group 16344" transform="translate(0 25.2)">
                <g id="Group_16342" data-name="Group 16342" transform="translate(13.595)">
                  <path id="Path_11066" data-name="Path 11066" d="M470.8,311.34s.906,27.13-10.856,38.025c-2.087,1.934-5.126,3.142-7.837,2.276h0c-3.5-1.118-6.278-4.83-5.283-8.368,2.483-8.824,6.986-25.493,6.986-35.065Z" transform="translate(-446.616 -308.208)" fill="#3b48c3"/>
                  <line id="Line_1968" data-name="Line 1968" y1="7.876" x2="1.395" transform="translate(5.21 5.304)" fill="none" stroke="#060000" stroke-linecap="round" stroke-linejoin="round" stroke-width="0.991"/>
                  <path id="Path_11067" data-name="Path 11067" d="M500.209,332.791s-3.422,18.538-6.844,25.517" transform="translate(-475.245 -323.262)" fill="none" stroke="#060000" stroke-linecap="round" stroke-linejoin="round" stroke-width="0.991"/>
                </g>
                <g id="Group_16343" data-name="Group 16343" transform="translate(0 4.074)">
                  <path id="Path_11068" data-name="Path 11068" d="M435.011,338.313l-8.649-19.594-14.819,3.954s6.276,26.61,16.948,34.346Z" transform="translate(-411.543 -318.719)" fill="#3b48c3"/>
                  <path id="Path_11069" data-name="Path 11069" d="M413.406,327.637l-1.863.5a85.715,85.715,0,0,0,10.829,27.4" transform="translate(-411.543 -324.18)" fill="none" stroke="#060000" stroke-linecap="round" stroke-linejoin="round" stroke-width="0.991"/>
                  <line id="Line_1969" data-name="Line 1969" x2="9.128" y2="20.857" transform="translate(14.819)" fill="none" stroke="#060000" stroke-linecap="round" stroke-linejoin="round" stroke-width="0.991"/>
                </g>
              </g>
            </g>
          </g>
        </g>
        <g id="Group_16351" data-name="Group 16351" transform="translate(0 67.467)">
          <path id="Path_11070" data-name="Path 11070" d="M220.148,396.978H151.069a3.426,3.426,0,0,0-3.426,3.426h0a3.427,3.427,0,0,0,3.426,3.426h69.078Z" transform="translate(-118.132 -341.115)" fill="#121257"/>
          <g id="Group_16350" data-name="Group 16350">
            <g id="Group_16349" data-name="Group 16349">
              <path id="Path_11071" data-name="Path 11071" d="M168.519,311.4H101.092a8.506,8.506,0,0,1-7.736-4.969L71.942,259.595a4.76,4.76,0,0,1,4.329-6.739H143.72a7.814,7.814,0,0,1,7.106,4.565L172.6,305.046A4.488,4.488,0,0,1,168.519,311.4Z" transform="translate(-71.506 -252.856)" fill="#b1b7da"/>
              <g id="Group_16348" data-name="Group 16348" clip-path="url(#clip-path-3)">
                <path id="Path_11072" data-name="Path 11072" d="M163.878,316.659H96.451a8.506,8.506,0,0,1-7.736-4.969L67.3,264.854a4.76,4.76,0,0,1,4.328-6.739H139.08a7.814,7.814,0,0,1,7.107,4.565L167.96,310.3A4.488,4.488,0,0,1,163.878,316.659Z" transform="translate(-68.664 -256.077)" fill="#d7daf2"/>
              </g>
            </g>
            <path id="Path_11074" data-name="Path 11074" d="M188.4,321.314c1.4,3.076.414,6.534-2.2,7.723s-5.869-.34-7.268-3.415-.414-6.534,2.2-7.723S187,318.238,188.4,321.314Z" transform="translate(-136.901 -292.44)" fill="#fff"/>
          </g>
          <path id="Path_11075" data-name="Path 11075" d="M368.537,402.241H324.924a3.93,3.93,0,0,1-3.93-3.93h0a3.93,3.93,0,0,1,3.93-3.929h43.613a3.93,3.93,0,0,1,3.93,3.929h0A3.93,3.93,0,0,1,368.537,402.241Z" transform="translate(-224.291 -339.526)" fill="#b1b7da"/>
        </g>
      </g>
      <g id="Group_16377" data-name="Group 16377" transform="translate(22.733 96.381)">
        <g id="Group_16357" data-name="Group 16357" transform="translate(214.427)">
          <g id="Group_16353" data-name="Group 16353" transform="translate(4.135)">
            <circle id="Ellipse_1284" data-name="Ellipse 1284" cx="7.799" cy="7.799" r="7.799" transform="translate(0.237 21.786)" fill="#fff"/>
            <circle id="Ellipse_1285" data-name="Ellipse 1285" cx="3.9" cy="3.9" r="3.9" transform="translate(15.835 14.502)" fill="#fff"/>
            <circle id="Ellipse_1286" data-name="Ellipse 1286" cx="3.329" cy="3.329" r="3.329" transform="translate(0 13.341) rotate(-45)" fill="#fff"/>
            <path id="Path_11076" data-name="Path 11076" d="M652.15,254.755a2.362,2.362,0,1,1-2.362-2.362A2.363,2.363,0,0,1,652.15,254.755Z" transform="translate(-637.773 -252.393)" fill="#fff"/>
          </g>
          <g id="Group_16356" data-name="Group 16356" transform="translate(0 42.202)">
            <g id="Group_16354" data-name="Group 16354">
              <path id="Rectangle_6249" data-name="Rectangle 6249" d="M0,0H24.341a0,0,0,0,1,0,0V15.762a12.17,12.17,0,0,1-12.17,12.17h0A12.17,12.17,0,0,1,0,15.762V0A0,0,0,0,1,0,0Z" fill="#f3d487"/>
              <path id="Rectangle_6250" data-name="Rectangle 6250" d="M0,0H5.141a6.8,6.8,0,0,1,6.8,6.8v0a6.8,6.8,0,0,1-6.8,6.8H0a0,0,0,0,1,0,0V0A0,0,0,0,1,0,0Z" transform="translate(21.023 7.555)" fill="none" stroke="#f3d487" stroke-miterlimit="10" stroke-width="8.743"/>
            </g>
            <g id="Group_16355" data-name="Group 16355" transform="translate(6.85 10.145)">
              <circle id="Ellipse_1287" data-name="Ellipse 1287" cx="1.098" cy="1.098" r="1.098" fill="#060000"/>
              <circle id="Ellipse_1288" data-name="Ellipse 1288" cx="1.098" cy="1.098" r="1.098" transform="translate(8.527)" fill="#060000"/>
              <path id="Path_11077" data-name="Path 11077" d="M632.361,399.787a5.892,5.892,0,0,0,8.527,0Z" transform="translate(-631.263 -395.003)" fill="#060000"/>
            </g>
          </g>
        </g>
        <g id="Group_16362" data-name="Group 16362" transform="translate(140.812 48.833)">
          <g id="Group_16361" data-name="Group 16361">
            <g id="Group_16359" data-name="Group 16359" transform="translate(0 7.378)">
              <path id="Path_11078" data-name="Path 11078" d="M428.106,430.259V420.2l33.557,7.85L455.895,440.2l-2.2.262Z" transform="translate(-425.714 -411.367)" fill="#d7daf2"/>
              <path id="Path_11079" data-name="Path 11079" d="M421.936,446.427l2.391-.274,27.789,8.563-1.144,1.959-26.9-8.2Z" transform="translate(-421.936 -427.262)" fill="#336"/>
              <path id="Path_11080" data-name="Path 11080" d="M421.936,414.819v1.9l29.488,9.16s2.827,3.845-.566,10.065l-28.922-9.273v2.035l30.18,9.716,6.771-11.8-4.863-11.8-14.928-.928Z" transform="translate(-421.936 -407.504)" fill="#3e3e75"/>
              <path id="Path_11081" data-name="Path 11081" d="M499.8,414.1s1.935,1.38,1.3,7.724-1.3,6.511-1.3,6.511l35.846-20.62s3.652-5.852-.9-10.3Z" transform="translate(-469.619 -397.414)" fill="#3e3e75"/>
              <g id="Group_16358" data-name="Group 16358" transform="translate(36.951 3.713)">
                <path id="Path_11082" data-name="Path 11082" d="M524.165,428.822s6.452,2.986,2.315,11.979" transform="translate(-521.491 -420.361)" fill="none" stroke="#336" stroke-linecap="round" stroke-linejoin="round" stroke-width="1.209"/>
                <path id="Path_11083" data-name="Path 11083" d="M563.563,410.018s4.866,2.7,2.167,10.237" transform="translate(-545.618 -408.845)" fill="none" stroke="#336" stroke-linecap="round" stroke-linejoin="round" stroke-width="1.153"/>
                <path id="Path_11084" data-name="Path 11084" d="M570.28,406.993s4.866,2.7,2.167,10.237" transform="translate(-549.732 -406.993)" fill="none" stroke="#336" stroke-linecap="round" stroke-linejoin="round" stroke-width="1.153"/>
                <path id="Path_11085" data-name="Path 11085" d="M517.267,432.519s6.452,2.987,2.315,11.979" transform="translate(-517.267 -422.625)" fill="none" stroke="#336" stroke-linecap="round" stroke-linejoin="round" stroke-width="1.209"/>
              </g>
            </g>
            <g id="Group_16360" data-name="Group 16360">
              <path id="Path_11086" data-name="Path 11086" d="M421.936,393.072l39.036-14.693,26.1,7.378-34.951,16.681Z" transform="translate(-421.936 -378.379)" fill="#4f4d85"/>
              <path id="Path_11087" data-name="Path 11087" d="M461.722,407.26l5.62-1.746,15.885,4.755-5.3,1.8Z" transform="translate(-446.301 -394.996)" fill="#fff"/>
            </g>
          </g>
        </g>
        <g id="Group_16376" data-name="Group 16376" transform="translate(0 21.51)">
          <g id="Group_16371" data-name="Group 16371">
            <g id="Group_16366" data-name="Group 16366" transform="translate(12.895)">
              <path id="Path_11088" data-name="Path 11088" d="M105.812,315.7a.475.475,0,0,1,.319.591L102.7,328.428a.475.475,0,0,1-.581.337h0a.476.476,0,0,1-.319-.591l3.428-12.132a.475.475,0,0,1,.581-.337Z" transform="translate(-97.96 -312.663)" fill="#121257"/>
              <path id="Path_11089" data-name="Path 11089" d="M118.207,308.653a.767.767,0,0,1,.524.95l-.974,3.448a.768.768,0,0,1-.944.536l-2.612-.738a.768.768,0,0,1-.524-.95l.974-3.448a.768.768,0,0,1,.944-.536Z" transform="translate(-105.225 -307.887)" fill="#121257"/>
              <g id="Group_16363" data-name="Group 16363" transform="translate(0 2.904)">
                <rect id="Rectangle_6251" data-name="Rectangle 6251" width="30.603" height="5.098" transform="translate(0 29.451) rotate(-74.228)" fill="#3b48c3"/>
              </g>
              <g id="Group_16364" data-name="Group 16364" transform="translate(0.014 32.301)">
                <path id="Path_11090" data-name="Path 11090" d="M92.17,399.831l-.217-8.61,4.906,1.386Z" transform="translate(-91.953 -391.221)" fill="#c52370"/>
              </g>
              <g id="Group_16365" data-name="Group 16365" transform="translate(7.561 4.132)">
                <rect id="Rectangle_6252" data-name="Rectangle 6252" width="0.772" height="5.486" transform="translate(0 0.743) rotate(-74.228)" fill="#121257"/>
              </g>
              <path id="Path_11091" data-name="Path 11091" d="M92.684,409.191a.228.228,0,0,1,.154.285l-.358,1.267a.229.229,0,0,1-.28.163h0a.23.23,0,0,1-.154-.286l.358-1.267a.229.229,0,0,1,.28-.162Z" transform="translate(-91.99 -369.92)" fill="#c52370"/>
            </g>
            <g id="Group_16370" data-name="Group 16370" transform="translate(0 3.742)">
              <g id="Group_16367" data-name="Group 16367" transform="translate(0.409 4.564)">
                <rect id="Rectangle_6253" data-name="Rectangle 6253" width="5.235" height="29.691" transform="matrix(0.9, -0.436, 0.436, 0.9, 0, 2.282)" fill="#f3d487"/>
                <rect id="Rectangle_6254" data-name="Rectangle 6254" width="2.049" height="29.691" transform="translate(1.434 1.588) rotate(-25.841)" fill="#060000"/>
              </g>
              <g id="Group_16368" data-name="Group 16368">
                <path id="Path_11092" data-name="Path 11092" d="M58.649,317.541l.432,6.9,4.712-2.283Z" transform="translate(-58.649 -317.541)" fill="#d7daf2"/>
                <path id="Path_11093" data-name="Path 11093" d="M58.649,317.541l.155,2.476L60.5,319.2Z" transform="translate(-58.649 -317.541)" fill="#060000"/>
              </g>
              <g id="Group_16369" data-name="Group 16369" transform="translate(12.359 29.519)">
                <path id="Path_11094" data-name="Path 11094" d="M98.587,399.864a2.619,2.619,0,1,1-4.711,2.283" transform="translate(-92.58 -397.474)" fill="#dc3a5d"/>
                <rect id="Rectangle_6255" data-name="Rectangle 6255" width="5.634" height="2.878" transform="matrix(0.9, -0.436, 0.436, 0.9, 0, 2.456)" fill="#afafaf"/>
              </g>
            </g>
            <path id="Path_11095" data-name="Path 11095" d="M85.132,405.318H75.977a4.918,4.918,0,0,1-4.905-4.568l-1.813-24.607H91.488L90.042,400.68A4.918,4.918,0,0,1,85.132,405.318Z" transform="translate(-65.147 -349.686)" fill="#4f4d85"/>
          </g>
          <g id="Group_16375" data-name="Group 16375" transform="translate(61.983 49.85)">
            <g id="Group_16372" data-name="Group 16372" transform="translate(5.461 0.452)">
              <rect id="Rectangle_6256" data-name="Rectangle 6256" width="29.691" height="5.235" transform="translate(0 7.577) rotate(-14.786)" fill="#f3d487"/>
              <rect id="Rectangle_6257" data-name="Rectangle 6257" width="29.691" height="2.049" transform="translate(0.407 9.117) rotate(-14.785)" fill="#060000"/>
            </g>
            <g id="Group_16373" data-name="Group 16373" transform="translate(0 8.016)">
              <path id="Path_11096" data-name="Path 11096" d="M218.562,461.339l6.852.9-1.337-5.062Z" transform="translate(-218.562 -457.175)" fill="#d7daf2"/>
              <path id="Path_11097" data-name="Path 11097" d="M218.562,465.555l2.46.323-.479-1.818Z" transform="translate(-218.562 -461.392)" fill="#060000"/>
            </g>
            <g id="Group_16374" data-name="Group 16374" transform="translate(32.313)">
              <path id="Path_11098" data-name="Path 11098" d="M308.443,437.054a2.619,2.619,0,1,1,1.336,5.062" transform="translate(-305.918 -436.78)" fill="#db6e8c"/>
              <rect id="Rectangle_6258" data-name="Rectangle 6258" width="2.878" height="5.634" transform="translate(0 0.735) rotate(-14.788)" fill="#d7daf2"/>
            </g>
          </g>
        </g>
      </g>
    </g>
  </g>
</svg>
