<svg xmlns="http://www.w3.org/2000/svg" width="93.481" height="93.48" viewBox="0 0 93.481 93.48">
  <g id="Group_16436" data-name="Group 16436" transform="translate(-543.346 -108.367)">
    <path id="Path_11114" data-name="Path 11114" d="M636.827,155.107a46.74,46.74,0,1,1-46.741-46.74A46.741,46.741,0,0,1,636.827,155.107Z" fill="#ffe483"/>
    <path id="Path_11115" data-name="Path 11115" d="M595.1,233.463c.336.007.674.013,1.012.013a46.742,46.742,0,0,0,46.65-43.85l-25.634-20.643L605.453,178.1l-4.711,10.683-5.649,9.33h-9.336L569.409,199l-14.518,3.7Z" transform="translate(-6.024 -31.629)" fill="#af5d14"/>
    <g id="Group_16435" data-name="Group 16435" transform="translate(548.867 137.354)">
      <g id="Group_16434" data-name="Group 16434" transform="translate(0 27.079)">
        <path id="Path_11116" data-name="Path 11116" d="M593.139,233.34s-6.118-4.471-17.043-3.214-14.189,2.644-18.022,3.214a30.928,30.928,0,0,0,8.889-.489c5.218-.979,19.244-3.344,25.6.612l1.141-.123" transform="translate(-556.552 -227.85)" fill="#ddd"/>
        <path id="Path_11117" data-name="Path 11117" d="M601.151,231.481H558.074l7.611-5.871h35.466Z" transform="translate(-556.552 -225.609)" fill="#3a3a3a"/>
        <path id="Path_11118" data-name="Path 11118" d="M592.728,231.48V233.2l-37.837-.956s8.046-6.633,9.133-6.633l-7.611,5.871Z" transform="translate(-554.891 -225.609)" fill="#2e82c6"/>
        <path id="Path_11119" data-name="Path 11119" d="M640.776,231.481h36.316l-7.611-5.871H634.014Z" transform="translate(-596.176 -225.609)" fill="#3a3a3a"/>
        <path id="Path_11120" data-name="Path 11120" d="M648.154,231.48V233.2l37.838-.956s-8.045-6.633-9.133-6.633l7.611,5.871Z" transform="translate(-603.555 -225.609)" fill="#2e82c6"/>
        <path id="Path_11121" data-name="Path 11121" d="M631.4,237.887a4.63,4.63,0,0,0,4.457,3.512c3.642,0,4.946-3.512,4.946-3.512Z" transform="translate(-594.813 -232.016)" fill="#2e82c6"/>
        <path id="Path_11122" data-name="Path 11122" d="M631.4,237.09a7.709,7.709,0,0,0,4.728,1.849,6.89,6.89,0,0,0,4.535-1.849Z" transform="translate(-594.813 -231.6)" fill="#3a3a3a"/>
      </g>
      <path id="Path_11123" data-name="Path 11123" d="M638.113,198.116l-1.313-1.5c-6.533-.77-18.013-.846-18.013-.846a87.077,87.077,0,0,1,18.777,0c-.927-3.832-3.4-4.934-3.4-4.934-21.067,1.821-26.061,5.487-26.061,5.487,8.727-7.6,27.492-7.085,27.492-7.085-4.373-11.677-10.824-13.468-10.824-13.468-10.848,6.038-22.3,20.295-22.3,20.295,10.184-16.093,22.722-22.23,22.722-22.23l-4.158-.906a84.119,84.119,0,0,0-18.564,20.214c4.944-11.068,19.1-22.025,19.1-22.025l-2.46-.385c-6.248,4.611-14.427,16.251-14.427,16.251,4.765-9.091,14.1-18,14.1-18h-5.9c-12.116,7.411-14.494,24.516-14.79,27.126-.3-2.609-2.672-19.715-14.789-27.126h-5.9s9.334,8.907,14.1,18c0,0-8.179-11.639-14.426-16.251l-2.461.385s14.155,10.958,19.1,22.025a84.116,84.116,0,0,0-18.565-20.214l-4.157.906s12.536,6.137,22.722,22.23c0,0-11.449-14.256-22.3-20.295,0,0-6.451,1.791-10.823,13.468,0,0,18.481,1.6,26.359,7,0,0-12.272-5.222-24.929-5.4,0,0-2.471,1.1-3.4,4.934a87.076,87.076,0,0,1,18.777,0s-11.48.076-18.013.846l-1.311,1.5,4.054-.785-3.917,3.959a51.694,51.694,0,0,0,11.382-.952c5.411-1.189,19.2-3.431,24.369.952h7.768c5.173-4.382,19.452-2.14,24.862-.952a51.7,51.7,0,0,0,11.382.952l-3.917-3.959Z" transform="translate(-556.552 -168.983)" fill="#eff4f2"/>
    </g>
  </g>
</svg>
