<svg id="Component_16_1" data-name="Component 16 – 1" xmlns="http://www.w3.org/2000/svg" width="93" height="93" viewBox="0 0 93 93">
  <path id="Path_11124" data-name="Path 11124" d="M396.408,370.308a46.5,46.5,0,1,1-46.5-46.5A46.5,46.5,0,0,1,396.408,370.308Z" transform="translate(-303.408 -323.808)" fill="#ffc2eb"/>
  <path id="Path_11125" data-name="Path 11125" d="M335.264,422.639l31.344,22.685c27.448-.7,46.5-22.476,46.5-46.5,0-.785-.4-5.586-.434-6.36L397.952,378.2Z" transform="translate(-320.108 -352.324)" fill="#bf8f08"/>
  <g id="Group_16458" data-name="Group 16458" transform="translate(15.156 22.685)">
    <g id="Group_16439" data-name="Group 16439" transform="translate(0 0)">
      <g id="Group_16437" data-name="Group 16437">
        <path id="Path_11126" data-name="Path 11126" d="M366.608,374.683c-18.575-7.185-31.344,0-31.344,0V419.12c12.345-6.137,31.344,0,31.344,0s19-6.137,31.344,0V374.683S385.184,367.5,366.608,374.683Z" transform="translate(-335.264 -371.49)" fill="#ef5e25"/>
      </g>
      <g id="Group_16438" data-name="Group 16438" transform="translate(2.74 2.709)">
        <path id="Path_11127" data-name="Path 11127" d="M369.628,380.015V419.4s-17.338-5.44-28.6,0V380.015S352.676,373.647,369.628,380.015Z" transform="translate(-341.023 -377.185)" fill="#e3deca"/>
        <path id="Path_11128" data-name="Path 11128" d="M401.148,380.015V419.4s17.337-5.44,28.6,0V380.015S418.1,373.647,401.148,380.015Z" transform="translate(-372.544 -377.185)" fill="#fcf8dd"/>
      </g>
    </g>
    <g id="Group_16449" data-name="Group 16449" transform="translate(4.967 7.052)">
      <g id="Group_16440" data-name="Group 16440" transform="translate(0.185)">
        <path id="Path_11129" data-name="Path 11129" d="M369.521,389.368a32.526,32.526,0,0,0-23.016-.016l-.412-.889a33.53,33.53,0,0,1,23.764-.016Z" transform="translate(-346.093 -386.312)" fill="#c4bfab"/>
      </g>
      <g id="Group_16441" data-name="Group 16441" transform="translate(0.185 2.449)">
        <path id="Path_11130" data-name="Path 11130" d="M369.521,394.516A32.526,32.526,0,0,0,346.5,394.5l-.412-.889a33.533,33.533,0,0,1,23.764-.016Z" transform="translate(-346.093 -391.46)" fill="#c4bfab"/>
      </g>
      <g id="Group_16442" data-name="Group 16442" transform="translate(0.185 4.899)">
        <path id="Path_11131" data-name="Path 11131" d="M369.521,399.664a32.526,32.526,0,0,0-23.016-.016l-.412-.889a33.533,33.533,0,0,1,23.764-.016Z" transform="translate(-346.093 -396.608)" fill="#c4bfab"/>
      </g>
      <g id="Group_16443" data-name="Group 16443" transform="translate(0 7.462)">
        <path id="Path_11132" data-name="Path 11132" d="M346.074,404.747l-.37-.907A33.394,33.394,0,0,1,357.784,402l-.01.979A33.267,33.267,0,0,0,346.074,404.747Z" transform="translate(-345.704 -401.997)" fill="#c4bfab"/>
      </g>
      <g id="Group_16444" data-name="Group 16444" transform="translate(0.185 15.185)">
        <path id="Path_11133" data-name="Path 11133" d="M369.521,421.286a32.519,32.519,0,0,0-23.016-.016l-.412-.889a33.528,33.528,0,0,1,23.764-.015Z" transform="translate(-346.093 -418.23)" fill="#c4bfab"/>
      </g>
      <g id="Group_16445" data-name="Group 16445" transform="translate(0.185 17.635)">
        <path id="Path_11134" data-name="Path 11134" d="M369.521,426.435a32.513,32.513,0,0,0-23.016-.016l-.412-.889a33.536,33.536,0,0,1,23.764-.016Z" transform="translate(-346.093 -423.378)" fill="#c4bfab"/>
      </g>
      <g id="Group_16446" data-name="Group 16446" transform="translate(0.185 25.962)">
        <path id="Path_11135" data-name="Path 11135" d="M369.521,443.938a32.516,32.516,0,0,0-23.016-.016l-.412-.889a33.537,33.537,0,0,1,23.764-.015Z" transform="translate(-346.093 -440.882)" fill="#c4bfab"/>
      </g>
      <g id="Group_16447" data-name="Group 16447" transform="translate(0.185 28.411)">
        <path id="Path_11136" data-name="Path 11136" d="M369.521,449.086a32.519,32.519,0,0,0-23.016-.015l-.412-.889a33.533,33.533,0,0,1,23.764-.016Z" transform="translate(-346.093 -446.03)" fill="#c4bfab"/>
      </g>
      <g id="Group_16448" data-name="Group 16448" transform="translate(0.185 30.86)">
        <path id="Path_11137" data-name="Path 11137" d="M369.521,454.234a32.519,32.519,0,0,0-23.016-.016l-.412-.889a33.54,33.54,0,0,1,23.764-.015Z" transform="translate(-346.093 -451.179)" fill="#c4bfab"/>
      </g>
    </g>
    <g id="Group_16457" data-name="Group 16457" transform="translate(33.765 7.052)">
      <g id="Group_16450" data-name="Group 16450">
        <path id="Path_11138" data-name="Path 11138" d="M429.664,389.368a32.525,32.525,0,0,0-23.017-.016l-.411-.889A33.525,33.525,0,0,1,430,388.448Z" transform="translate(-406.236 -386.312)" fill="#c4bfab"/>
      </g>
      <g id="Group_16451" data-name="Group 16451" transform="translate(0 2.449)">
        <path id="Path_11139" data-name="Path 11139" d="M429.664,394.516a32.525,32.525,0,0,0-23.017-.016l-.411-.889A33.528,33.528,0,0,1,430,393.6Z" transform="translate(-406.236 -391.46)" fill="#c4bfab"/>
      </g>
      <g id="Group_16452" data-name="Group 16452" transform="translate(0 4.899)">
        <path id="Path_11140" data-name="Path 11140" d="M429.664,399.664a32.522,32.522,0,0,0-23.017-.016l-.411-.889A33.528,33.528,0,0,1,430,398.744Z" transform="translate(-406.236 -396.608)" fill="#c4bfab"/>
      </g>
      <g id="Group_16453" data-name="Group 16453" transform="translate(0 7.348)">
        <path id="Path_11141" data-name="Path 11141" d="M429.664,404.812a32.519,32.519,0,0,0-23.017-.016l-.411-.89A33.533,33.533,0,0,1,430,403.892Z" transform="translate(-406.236 -401.756)" fill="#c4bfab"/>
      </g>
      <g id="Group_16454" data-name="Group 16454" transform="translate(0 9.797)">
        <path id="Path_11142" data-name="Path 11142" d="M429.664,409.96a32.521,32.521,0,0,0-23.017-.015l-.411-.889A33.528,33.528,0,0,1,430,409.04Z" transform="translate(-406.236 -406.904)" fill="#c4bfab"/>
      </g>
      <g id="Group_16455" data-name="Group 16455" transform="translate(0 12.246)">
        <path id="Path_11143" data-name="Path 11143" d="M429.664,415.108a32.521,32.521,0,0,0-23.017-.015l-.411-.889A33.528,33.528,0,0,1,430,414.188Z" transform="translate(-406.236 -412.052)" fill="#c4bfab"/>
      </g>
      <g id="Group_16456" data-name="Group 16456" transform="translate(11.881 14.898)">
        <path id="Path_11144" data-name="Path 11144" d="M442.919,420.378l.371-.907a33.428,33.428,0,0,0-12.081-1.841l.01.98A33.258,33.258,0,0,1,442.919,420.378Z" transform="translate(-431.209 -417.627)" fill="#c4bfab"/>
      </g>
      <path id="Path_11145" data-name="Path 11145" d="M406.236,431.115v9.419s7.431-3.806,23.763,0v-9.419S420.736,426.483,406.236,431.115Z" transform="translate(-406.236 -408.721)" fill="#c4bfab"/>
    </g>
    <path id="Path_11146" data-name="Path 11146" d="M409,398.5V379.2a45.085,45.085,0,0,0-4.9,1.371V398.5l2.448-2.46Z" transform="translate(-371.352 -375.532)" fill="#dd4212"/>
  </g>
</svg>
